<svg xmlns="http://www.w3.org/2000/svg" viewBox="0 0 600 440" font-family="Inter,system-ui,sans-serif">
<line x1="115" y1="218" x2="214" y2="60" stroke="#46557d" stroke-opacity="0.34" stroke-width="1.4"/>
<line x1="115" y1="218" x2="214" y2="135" stroke="#46557d" stroke-opacity="0.34" stroke-width="1.4"/>
<line x1="115" y1="218" x2="214" y2="305" stroke="#46557d" stroke-opacity="0.34" stroke-width="1.4"/>
<line x1="115" y1="218" x2="214" y2="380" stroke="#46557d" stroke-opacity="0.34" stroke-width="1.4"/>
<line x1="270" y1="60" x2="364" y2="60" stroke="#46557d" stroke-opacity="0.34" stroke-width="1.4"/>
<line x1="270" y1="60" x2="364" y2="135" stroke="#46557d" stroke-opacity="0.34" stroke-width="1.4"/>
<line x1="270" y1="60" x2="364" y2="305" stroke="#46557d" stroke-opacity="0.34" stroke-width="1.4"/>
<line x1="270" y1="60" x2="364" y2="380" stroke="#46557d" stroke-opacity="0.34" stroke-width="1.4"/>
<line x1="270" y1="135" x2="364" y2="60" stroke="#46557d" stroke-opacity="0.34" stroke-width="1.4"/>
<line x1="270" y1="135" x2="364" y2="135" stroke="#46557d" stroke-opacity="0.34" stroke-width="1.4"/>
<line x1="270" y1="135" x2="364" y2="305" stroke="#46557d" stroke-opacity="0.34" stroke-width="1.4"/>
<line x1="270" y1="135" x2="364" y2="380" stroke="#46557d" stroke-opacity="0.34" stroke-width="1.4"/>
<line x1="270" y1="305" x2="364" y2="60" stroke="#46557d" stroke-opacity="0.34" stroke-width="1.4"/>
<line x1="270" y1="305" x2="364" y2="135" stroke="#46557d" stroke-opacity="0.34" stroke-width="1.4"/>
<line x1="270" y1="305" x2="364" y2="305" stroke="#46557d" stroke-opacity="0.34" stroke-width="1.4"/>
<line x1="270" y1="305" x2="364" y2="380" stroke="#46557d" stroke-opacity="0.34" stroke-width="1.4"/>
<line x1="270" y1="380" x2="364" y2="60" stroke="#46557d" stroke-opacity="0.34" stroke-width="1.4"/>
<line x1="270" y1="380" x2="364" y2="135" stroke="#46557d" stroke-opacity="0.34" stroke-width="1.4"/>
<line x1="270" y1="380" x2="364" y2="305" stroke="#46557d" stroke-opacity="0.34" stroke-width="1.4"/>
<line x1="270" y1="380" x2="364" y2="380" stroke="#46557d" stroke-opacity="0.34" stroke-width="1.4"/>
<line x1="420" y1="60" x2="499" y2="118" stroke="#46557d" stroke-opacity="0.34" stroke-width="1.4"/>
<line x1="420" y1="60" x2="499" y2="218" stroke="#46557d" stroke-opacity="0.34" stroke-width="1.4"/>
<line x1="420" y1="60" x2="499" y2="318" stroke="#46557d" stroke-opacity="0.34" stroke-width="1.4"/>
<line x1="420" y1="135" x2="499" y2="118" stroke="#46557d" stroke-opacity="0.34" stroke-width="1.4"/>
<line x1="420" y1="135" x2="499" y2="218" stroke="#46557d" stroke-opacity="0.34" stroke-width="1.4"/>
<line x1="420" y1="135" x2="499" y2="318" stroke="#46557d" stroke-opacity="0.34" stroke-width="1.4"/>
<line x1="420" y1="305" x2="499" y2="118" stroke="#46557d" stroke-opacity="0.34" stroke-width="1.4"/>
<line x1="420" y1="305" x2="499" y2="218" stroke="#46557d" stroke-opacity="0.34" stroke-width="1.4"/>
<line x1="420" y1="305" x2="499" y2="318" stroke="#46557d" stroke-opacity="0.34" stroke-width="1.4"/>
<line x1="420" y1="380" x2="499" y2="118" stroke="#46557d" stroke-opacity="0.34" stroke-width="1.4"/>
<line x1="420" y1="380" x2="499" y2="218" stroke="#46557d" stroke-opacity="0.34" stroke-width="1.4"/>
<line x1="420" y1="380" x2="499" y2="318" stroke="#46557d" stroke-opacity="0.34" stroke-width="1.4"/>
<circle cx="242" cy="60" r="28" fill="#131c36" stroke="#36456b" stroke-width="2.4"/>
<circle cx="392" cy="60" r="28" fill="#131c36" stroke="#36456b" stroke-width="2.4"/>
<circle cx="242" cy="135" r="28" fill="#131c36" stroke="#36456b" stroke-width="2.4"/>
<circle cx="392" cy="135" r="28" fill="#131c36" stroke="#36456b" stroke-width="2.4"/>
<circle cx="242" cy="305" r="28" fill="#131c36" stroke="#36456b" stroke-width="2.4"/>
<circle cx="392" cy="305" r="28" fill="#131c36" stroke="#36456b" stroke-width="2.4"/>
<circle cx="242" cy="380" r="28" fill="#131c36" stroke="#36456b" stroke-width="2.4"/>
<circle cx="392" cy="380" r="28" fill="#131c36" stroke="#36456b" stroke-width="2.4"/>
<circle cx="242" cy="206" r="2.6" fill="#6E7A95"/>
<circle cx="242" cy="218" r="2.6" fill="#6E7A95"/>
<circle cx="242" cy="230" r="2.6" fill="#6E7A95"/>
<circle cx="392" cy="206" r="2.6" fill="#6E7A95"/>
<circle cx="392" cy="218" r="2.6" fill="#6E7A95"/>
<circle cx="392" cy="230" r="2.6" fill="#6E7A95"/>
<circle cx="82" cy="218" r="33" fill="#3a2018" stroke="#FF6A3D" stroke-width="2.4"/>
<text x="82" y="218" fill="#EAEEF7" font-size="30" font-style="italic" font-family="Georgia,'Times New Roman',serif" text-anchor="middle" dominant-baseline="central">t</text>
<circle cx="532" cy="118" r="33" fill="#0f2e2c" stroke="#1FC8AC" stroke-width="2.4"/>
<text x="532" y="118" fill="#EAEEF7" font-size="30" font-style="italic" font-family="Georgia,'Times New Roman',serif" text-anchor="middle" dominant-baseline="central">x</text>
<circle cx="532" cy="218" r="33" fill="#0f2e2c" stroke="#1FC8AC" stroke-width="2.4"/>
<text x="532" y="218" fill="#EAEEF7" font-size="30" font-style="italic" font-family="Georgia,'Times New Roman',serif" text-anchor="middle" dominant-baseline="central">y</text>
<circle cx="532" cy="318" r="33" fill="#0f2e2c" stroke="#1FC8AC" stroke-width="2.4"/>
<text x="532" y="318" fill="#EAEEF7" font-size="30" font-style="italic" font-family="Georgia,'Times New Roman',serif" text-anchor="middle" dominant-baseline="central">z</text>
<text x="82" y="423" fill="#FF6A3D" font-size="20" font-weight="600" text-anchor="middle">Input  t</text>
<text x="317" y="423" fill="#98A4BE" font-size="20" font-weight="600" text-anchor="middle">Hidden layers</text>
<text x="532" y="423" fill="#1FC8AC" font-size="20" font-weight="600" text-anchor="middle">Output (x, y, z)</text>
</svg>